<svg width="56" height="54" viewBox="0 0 56 54" fill="none" xmlns="http://www.w3.org/2000/svg">
<path d="M16.3333 24.4036V42.0703C16.3333 42.656 16.0875 43.2177 15.6499 43.6318C15.2123 44.046 14.6188 44.2786 14 44.2786H9.33333C8.71449 44.2786 8.121 44.046 7.68342 43.6318C7.24583 43.2177 7 42.656 7 42.0703V26.612C7 26.0263 7.24583 25.4646 7.68342 25.0505C8.121 24.6363 8.71449 24.4036 9.33333 24.4036H16.3333C18.8087 24.4036 21.1827 23.473 22.933 21.8164C24.6833 20.1599 25.6667 17.9131 25.6667 15.5703V13.362C25.6667 12.1906 26.1583 11.0672 27.0335 10.2389C27.9087 9.41064 29.0957 8.94531 30.3333 8.94531C31.571 8.94531 32.758 9.41064 33.6332 10.2389C34.5083 11.0672 35 12.1906 35 13.362V24.4036H42C43.2377 24.4036 44.4247 24.869 45.2998 25.6973C46.175 26.5255 46.6667 27.6489 46.6667 28.8203L44.3333 39.862C43.9978 41.2167 43.3612 42.38 42.5195 43.1766C41.6778 43.9732 40.6766 44.36 39.6667 44.2786H23.3333C21.4768 44.2786 19.6963 43.5807 18.3836 42.3382C17.0708 41.0958 16.3333 39.4107 16.3333 37.6536" fill="#20C997"/>
<path d="M16.3333 24.4036V42.0703C16.3333 42.656 16.0875 43.2177 15.6499 43.6318C15.2123 44.046 14.6188 44.2786 14 44.2786H9.33333C8.71449 44.2786 8.121 44.046 7.68342 43.6318C7.24583 43.2177 7 42.656 7 42.0703V26.612C7 26.0263 7.24583 25.4646 7.68342 25.0505C8.121 24.6363 8.71449 24.4036 9.33333 24.4036H16.3333ZM16.3333 24.4036C18.8087 24.4036 21.1827 23.473 22.933 21.8164C24.6833 20.1599 25.6667 17.9131 25.6667 15.5703V13.362C25.6667 12.1906 26.1583 11.0672 27.0335 10.2389C27.9087 9.41064 29.0957 8.94531 30.3333 8.94531C31.571 8.94531 32.758 9.41064 33.6332 10.2389C34.5083 11.0672 35 12.1906 35 13.362V24.4036H42C43.2377 24.4036 44.4247 24.869 45.2998 25.6973C46.175 26.5255 46.6667 27.6489 46.6667 28.8203L44.3333 39.862C43.9978 41.2167 43.3612 42.38 42.5195 43.1766C41.6778 43.9732 40.6766 44.36 39.6667 44.2786H23.3333C21.4768 44.2786 19.6963 43.5807 18.3836 42.3382C17.0708 41.0958 16.3333 39.4107 16.3333 37.6536" stroke="#1C836D" stroke-width="1.5" stroke-linecap="round" stroke-linejoin="round"/>
</svg>
